<svg width="100" height="105" viewBox="0 0 100 105" fill="none" xmlns="http://www.w3.org/2000/svg">
<g clip-path="url(#clip0)">
<path d="M56.25 26.3979H43.75V13.3271H50V19.8625H56.25V26.3979ZM81.25 79.0897C82.6172 79.4641 83.8704 80.0598 85.0098 80.8767C86.1491 81.6936 87.1257 82.6637 87.9395 83.787C88.7533 84.9103 89.4043 86.1527 89.8926 87.5142C90.3809 88.8758 90.625 90.2884 90.625 91.752C90.625 93.5561 90.2995 95.241 89.6484 96.8068C88.9974 98.3725 88.1022 99.7681 86.9629 100.994C85.8236 102.219 84.5052 103.155 83.0078 103.802C81.5104 104.448 79.8828 104.789 78.125 104.823C76.3997 104.823 74.7884 104.482 73.291 103.802C71.7936 103.121 70.459 102.185 69.2871 100.994C68.1152 99.8022 67.2201 98.4236 66.6016 96.8578C65.9831 95.292 65.6576 93.5901 65.625 91.752C65.625 90.2884 65.8529 88.8758 66.3086 87.5142C66.7643 86.1527 67.3991 84.9103 68.2129 83.787C69.0267 82.6637 70.0195 81.6936 71.1914 80.8767C72.3633 80.0598 73.6328 79.4641 75 79.0897V65.6104H50V79.0897C51.3672 79.4641 52.6204 80.0598 53.7598 80.8767C54.8991 81.6936 55.8757 82.6637 56.6895 83.787C57.5033 84.9103 58.1543 86.1527 58.6426 87.5142C59.1309 88.8758 59.375 90.2884 59.375 91.752C59.375 93.5561 59.0495 95.241 58.3984 96.8068C57.7474 98.3725 56.8522 99.7681 55.7129 100.994C54.5736 102.219 53.2552 103.155 51.7578 103.802C50.2604 104.448 48.6328 104.789 46.875 104.823C45.1497 104.823 43.5384 104.482 42.041 103.802C40.5436 103.121 39.209 102.185 38.0371 100.994C36.8652 99.8022 35.9701 98.4236 35.3516 96.8578C34.7331 95.292 34.4076 93.5901 34.375 91.752C34.375 90.2884 34.6029 88.8758 35.0586 87.5142C35.5143 86.1527 36.1491 84.9103 36.9629 83.787C37.7767 82.6637 38.7695 81.6936 39.9414 80.8767C41.1133 80.0598 42.3828 79.4641 43.75 79.0897V65.6104H18.75V79.0897C20.1172 79.4641 21.3704 80.0598 22.5098 80.8767C23.6491 81.6936 24.6257 82.6637 25.4395 83.787C26.2533 84.9103 26.9043 86.1527 27.3926 87.5142C27.8809 88.8758 28.125 90.2884 28.125 91.752C28.125 93.5561 27.7995 95.241 27.1484 96.8068C26.4974 98.3725 25.6022 99.7681 24.4629 100.994C23.3236 102.219 22.0052 103.155 20.5078 103.802C19.0104 104.448 17.3828 104.789 15.625 104.823C13.8997 104.823 12.2884 104.482 10.791 103.802C9.29362 103.121 7.95898 102.185 6.78711 100.994C5.61523 99.8022 4.72005 98.4236 4.10156 96.8578C3.48307 95.292 3.15755 93.5901 3.125 91.752C3.125 90.2884 3.35286 88.8758 3.80859 87.5142C4.26432 86.1527 4.89909 84.9103 5.71289 83.787C6.52669 82.6637 7.51953 81.6936 8.69141 80.8767C9.86328 80.0598 11.1328 79.4641 12.5 79.0897V59.075H43.75V45.7488C41.0482 45.3744 38.5579 44.5234 36.2793 43.1959C34.0007 41.8684 32.015 40.1835 30.3223 38.1412C28.6296 36.0989 27.3275 33.8013 26.416 31.2484C25.5046 28.6955 25.0326 25.9894 25 23.1302C25 19.9646 25.5697 17.0032 26.709 14.2461C27.8483 11.489 29.4108 9.05521 31.3965 6.94481C33.3822 4.83442 35.6934 3.20057 38.3301 2.04325C40.9668 0.88594 43.8151 0.290264 46.875 0.256226C49.9023 0.256226 52.7344 0.851901 55.3711 2.04325C58.0078 3.2346 60.3353 4.86846 62.3535 6.94481C64.3717 9.02117 65.9342 11.4379 67.041 14.195C68.1478 16.9522 68.7175 19.9305 68.75 23.1302C68.75 25.9554 68.278 28.6444 67.334 31.1973C66.39 33.7502 65.0879 36.0478 63.4277 38.0901C61.7676 40.1325 59.7982 41.8174 57.5195 43.1449C55.2409 44.4724 52.7344 45.3404 50 45.7488V59.075H81.25V79.0897ZM31.25 23.1302C31.25 25.3767 31.6569 27.4871 32.4707 29.4614C33.2845 31.4356 34.3913 33.1716 35.791 34.6693C37.1908 36.167 38.8509 37.3413 40.7715 38.1923C42.6921 39.0432 44.7266 39.4687 46.875 39.4687C49.0234 39.4687 51.0417 39.0432 52.9297 38.1923C54.8177 37.3413 56.4616 36.184 57.8613 34.7203C59.2611 33.2567 60.3841 31.5207 61.2305 29.5124C62.0768 27.5041 62.5 25.3767 62.5 23.1302C62.5 20.8836 62.0931 18.7732 61.2793 16.799C60.4655 14.8248 59.3425 13.1058 57.9102 11.6421C56.4779 10.1785 54.8177 9.00415 52.9297 8.11915C51.0417 7.23414 49.0234 6.79164 46.875 6.79164C44.7266 6.79164 42.7083 7.21712 40.8203 8.06809C38.9323 8.91905 37.2721 10.0934 35.8398 11.5911C34.4076 13.0888 33.2845 14.8248 32.4707 16.799C31.6569 18.7732 31.25 20.8836 31.25 23.1302ZM21.875 91.752C21.875 90.833 21.7122 89.982 21.3867 89.1991C21.0612 88.4162 20.6217 87.7355 20.0684 87.1568C19.515 86.5782 18.8477 86.1016 18.0664 85.7272C17.2852 85.3528 16.4714 85.1826 15.625 85.2166C14.7461 85.2166 13.9323 85.3868 13.1836 85.7272C12.4349 86.0676 11.7839 86.5271 11.2305 87.1058C10.6771 87.6844 10.2214 88.3822 9.86328 89.1991C9.50521 90.0161 9.34245 90.867 9.375 91.752C9.375 92.6711 9.53776 93.522 9.86328 94.3049C10.1888 95.0878 10.6283 95.7686 11.1816 96.3472C11.735 96.9259 12.4023 97.4024 13.1836 97.7769C13.9648 98.1513 14.7786 98.3215 15.625 98.2874C16.5039 98.2874 17.3177 98.1173 18.0664 97.7769C18.8151 97.4365 19.4661 96.977 20.0195 96.3983C20.5729 95.8196 21.0286 95.1219 21.3867 94.3049C21.7448 93.488 21.9076 92.637 21.875 91.752ZM53.125 91.752C53.125 90.833 52.9622 89.982 52.6367 89.1991C52.3112 88.4162 51.8717 87.7355 51.3184 87.1568C50.765 86.5782 50.0977 86.1016 49.3164 85.7272C48.5352 85.3528 47.7214 85.1826 46.875 85.2166C45.9961 85.2166 45.1823 85.3868 44.4336 85.7272C43.6849 86.0676 43.0339 86.5271 42.4805 87.1058C41.9271 87.6844 41.4714 88.3822 41.1133 89.1991C40.7552 90.0161 40.5925 90.867 40.625 91.752C40.625 92.6711 40.7878 93.522 41.1133 94.3049C41.4388 95.0878 41.8783 95.7686 42.4316 96.3472C42.985 96.9259 43.6523 97.4024 44.4336 97.7769C45.2148 98.1513 46.0286 98.3215 46.875 98.2874C47.7539 98.2874 48.5677 98.1173 49.3164 97.7769C50.0651 97.4365 50.7161 96.977 51.2695 96.3983C51.8229 95.8196 52.2786 95.1219 52.6367 94.3049C52.9948 93.488 53.1576 92.637 53.125 91.752ZM78.125 98.2874C79.0039 98.2874 79.8177 98.1173 80.5664 97.7769C81.3151 97.4365 81.9662 96.977 82.5195 96.3983C83.0729 95.8196 83.5287 95.1219 83.8867 94.3049C84.2448 93.488 84.4076 92.637 84.375 91.752C84.375 90.833 84.2122 89.982 83.8867 89.1991C83.5612 88.4162 83.1218 87.7355 82.5684 87.1568C82.015 86.5782 81.3477 86.1016 80.5664 85.7272C79.7852 85.3528 78.9714 85.1826 78.125 85.2166C77.2461 85.2166 76.4323 85.3868 75.6836 85.7272C74.9349 86.0676 74.2839 86.5271 73.7305 87.1058C73.1771 87.6844 72.7214 88.3822 72.3633 89.1991C72.0052 90.0161 71.8425 90.867 71.875 91.752C71.875 92.6711 72.0378 93.522 72.3633 94.3049C72.6888 95.0878 73.1283 95.7686 73.6816 96.3472C74.235 96.9259 74.9023 97.4024 75.6836 97.7769C76.4648 98.1513 77.2787 98.3215 78.125 98.2874Z" fill="#000"/>
</g>
<defs>
<clipPath id="clip0">
<rect width="100" height="104.567" fill="white" transform="translate(0 0.256226)"/>
</clipPath>
</defs>
</svg>
