<svg width="100" height="92" viewBox="0 0 100 92" fill="none" xmlns="http://www.w3.org/2000/svg">
<defs>
    <linearGradient id="grad1" x1="0%" y1="0%" x2="100%" y2="0%">
      <stop offset="0%" style="stop-color:rgb(255,255,0);stop-opacity:1" />
      <stop offset="100%" style="stop-color:rgb(255,0,0);stop-opacity:1" />
    </linearGradient>
</defs>
<path d="M73.2439 26.261C71.3233 26.9418 69.5167 27.8268 67.824 28.9161C66.1313 30.0053 64.5525 31.2988 63.0876 32.7965H50.6365V26.261H73.2439ZM55.324 52.4027C55.324 53.4919 55.3891 54.5812 55.5193 55.6704C55.6495 56.7596 55.8611 57.8489 56.154 58.9381H50.6365V52.4027H55.324ZM100.636 13.1902V32.7454C99.725 31.7923 98.7484 30.9414 97.7068 30.1925C96.6651 29.4437 95.5583 28.7288 94.3865 28.0481V19.7256H88.1365V25.4952C87.0948 25.2229 86.0531 25.0186 85.0115 24.8825C83.9698 24.7463 82.9281 24.6612 81.8865 24.6272V6.6548H6.88647V59.2955C6.88647 60.1465 7.03296 60.9464 7.32593 61.6952C7.6189 62.4441 8.04207 63.0908 8.59546 63.6354C9.14884 64.1801 9.78361 64.6226 10.4998 64.9629C11.2159 65.3033 11.9809 65.4735 12.7947 65.4735H53.908L47.658 72.0089H12.7947C11.1345 72.0089 9.57202 71.6856 8.10718 71.0388C6.64233 70.3921 5.34025 69.4731 4.20093 68.2817C3.0616 67.0904 2.19897 65.7458 1.61304 64.2481C1.0271 62.7504 0.701579 61.0996 0.636475 59.2955V0.119385H88.1365V13.1902H100.636ZM75.6365 19.7256H13.1365V13.1902H75.6365V19.7256ZM13.1365 26.261H44.3865V58.9381H13.1365V26.261ZM19.3865 52.4027H38.1365V32.7965H19.3865V52.4027ZM50.6365 39.3319H56.8865V43.3654C56.5935 44.2164 56.3494 45.0504 56.154 45.8673H50.6365V39.3319ZM81.8865 32.7965C84.4581 32.7965 86.8832 33.307 89.1619 34.3282C91.4405 35.3494 93.4262 36.7449 95.1189 38.5149C96.8116 40.285 98.1625 42.3783 99.1716 44.7951C100.181 47.2118 100.669 49.7477 100.636 52.4027C100.636 55.1258 100.148 57.6617 99.1716 60.0103C98.1951 62.359 96.8604 64.4353 95.1677 66.2394C93.475 68.0434 91.4731 69.456 89.1619 70.4772C86.8507 71.4984 84.4255 72.0089 81.8865 72.0089C79.9333 72.0089 78.0453 71.7026 76.2224 71.0899C74.3995 70.4772 72.6742 69.5582 71.0466 68.3328L49.7087 90.6451C49.0902 91.2918 48.3578 91.6152 47.5115 91.6152C46.6651 91.6152 45.9327 91.2918 45.3142 90.6451C44.6957 89.9983 44.3865 89.2325 44.3865 88.3475C44.3865 87.4625 44.6957 86.6966 45.3142 86.0499L66.6521 63.7376C65.5128 62.0697 64.6501 60.2826 64.0642 58.3765C63.4783 56.4703 63.169 54.4791 63.1365 52.4027C63.1365 49.7136 63.6248 47.1778 64.6013 44.7951C65.5779 42.4124 66.9125 40.336 68.6052 38.566C70.2979 36.796 72.2836 35.3834 74.5623 34.3282C76.8409 33.273 79.2823 32.7624 81.8865 32.7965ZM81.8865 65.4735C83.6117 65.4735 85.2231 65.1331 86.7205 64.4524C88.2178 63.7716 89.5525 62.8355 90.7244 61.6442C91.8962 60.4528 92.7914 59.0743 93.4099 57.5085C94.0284 55.9427 94.3539 54.2408 94.3865 52.4027C94.3865 50.5987 94.0609 48.9137 93.4099 47.348C92.7589 45.7822 91.8637 44.3866 90.7244 43.1612C89.585 41.9358 88.2667 40.9998 86.7693 40.353C85.2719 39.7063 83.6443 39.3659 81.8865 39.3319C80.1612 39.3319 78.5499 39.6723 77.0525 40.353C75.5551 41.0338 74.2205 41.9699 73.0486 43.1612C71.8767 44.3526 70.9815 45.7311 70.363 47.2969C69.7445 48.8627 69.419 50.5646 69.3865 52.4027C69.3865 54.2067 69.712 55.8917 70.363 57.4574C71.0141 59.0232 71.9093 60.4188 73.0486 61.6442C74.1879 62.8696 75.5063 63.8056 77.0037 64.4524C78.5011 65.0991 80.1287 65.4395 81.8865 65.4735Z" fill="#000"/>
</svg>
