<svg width="100" height="105" viewBox="0 0 100 105" fill="none" xmlns="http://www.w3.org/2000/svg">
<g clip-path="url(#clip0)">
<path d="M78.125 26.3979C80.2734 26.3979 82.2917 26.8234 84.1797 27.6743C86.0677 28.5253 87.7116 29.6996 89.1113 31.1973C90.5111 32.695 91.6341 34.431 92.4805 36.4052C93.3268 38.3795 93.75 40.4899 93.75 42.7364V68.8781C93.75 71.1246 93.3431 73.235 92.5293 75.2093C91.7155 77.1835 90.5924 78.9195 89.1602 80.4172C87.7279 81.9149 86.0677 83.0892 84.1797 83.9402C82.2917 84.7911 80.2734 85.2166 78.125 85.2166H75V95.0197C75 96.3813 74.7559 97.6577 74.2676 98.8491C73.7793 100.04 73.112 101.079 72.2656 101.964C71.4193 102.849 70.4264 103.546 69.2871 104.057C68.1478 104.568 66.9271 104.823 65.625 104.823H15.625C14.3229 104.823 13.1022 104.568 11.9629 104.057C10.8236 103.546 9.83073 102.849 8.98438 101.964C8.13802 101.079 7.4707 100.04 6.98242 98.8491C6.49414 97.6577 6.25 96.3813 6.25 95.0197V24.6109C4.32943 23.4535 2.81576 21.8707 1.70898 19.8625C0.602214 17.8542 0.0325521 15.6757 0 13.3271C0 11.557 0.325521 9.87214 0.976562 8.27232C1.6276 6.67251 2.50651 5.29394 3.61328 4.13663C4.72005 2.97932 6.03841 2.04325 7.56836 1.32844C9.09831 0.613631 10.7096 0.256226 12.4023 0.256226H68.75C70.4753 0.256226 72.0866 0.596612 73.584 1.27738C75.0814 1.95816 76.416 2.89422 77.5879 4.08557C78.7598 5.27692 79.6549 6.65549 80.2734 8.22126C80.8919 9.78704 81.2174 11.489 81.25 13.3271C81.25 14.5184 81.1035 15.6927 80.8105 16.8501C80.5176 18.0074 80.0944 19.0966 79.541 20.1178C78.9876 21.1389 78.3203 22.092 77.5391 22.977C76.7578 23.862 75.9115 24.5938 75 25.1725V26.3979H78.125ZM12.4512 6.79164C11.6048 6.79164 10.8073 6.96183 10.0586 7.30222C9.3099 7.64261 8.64258 8.10213 8.05664 8.68078C7.4707 9.25944 7.03125 9.95723 6.73828 10.7742C6.44531 11.5911 6.28255 12.4421 6.25 13.3271C6.25 14.6886 6.62435 15.931 7.37305 17.0543C8.12174 18.1776 9.13086 18.9775 10.4004 19.454L12.5 20.2199V49.2718C12.5 50.1568 12.8092 50.9227 13.4277 51.5694C14.0462 52.2162 14.7786 52.5395 15.625 52.5395C16.4714 52.5395 17.2038 52.2162 17.8223 51.5694C18.4408 50.9227 18.75 50.1568 18.75 49.2718V29.6656C18.75 28.304 18.9941 27.0276 19.4824 25.8362C19.9707 24.6449 20.638 23.6067 21.4844 22.7217C22.3307 21.8367 23.3236 21.1389 24.4629 20.6283C25.6022 20.1178 26.8229 19.8625 28.125 19.8625C29.4271 19.8625 30.6478 20.1178 31.7871 20.6283C32.9264 21.1389 33.9193 21.8367 34.7656 22.7217C35.612 23.6067 36.2793 24.6449 36.7676 25.8362C37.2559 27.0276 37.5 28.304 37.5 29.6656V42.7364C37.5 43.6214 37.8092 44.3873 38.4277 45.034C39.0462 45.6808 39.7786 46.0041 40.625 46.0041C41.4714 46.0041 42.2038 45.6808 42.8223 45.034C43.4408 44.3873 43.75 43.6214 43.75 42.7364V29.6656C43.75 28.304 43.9941 27.0276 44.4824 25.8362C44.9707 24.6449 45.638 23.6067 46.4844 22.7217C47.3307 21.8367 48.3236 21.1389 49.4629 20.6283C50.6022 20.1178 51.8229 19.8625 53.125 19.8625H71.2402C72.3145 19.3179 73.2096 18.4328 73.9258 17.2075C74.6419 15.9821 75 14.6886 75 13.3271C75 12.408 74.8372 11.557 74.5117 10.7742C74.1862 9.99127 73.7467 9.3105 73.1934 8.73184C72.64 8.15319 71.9727 7.67664 71.1914 7.30222C70.4102 6.92779 69.5964 6.7576 68.75 6.79164H12.4512ZM68.75 95.0197V91.1393C68.2617 91.3095 67.7572 91.4457 67.2363 91.5478C66.7155 91.6499 66.1784 91.718 65.625 91.752H15.625C15.0716 91.752 14.5345 91.701 14.0137 91.5989C13.4928 91.4967 12.9883 91.3436 12.5 91.1393V95.0197C12.5 95.9047 12.8092 96.6706 13.4277 97.3173C14.0462 97.9641 14.7786 98.2874 15.625 98.2874H65.625C66.4714 98.2874 67.2038 97.9641 67.8223 97.3173C68.4408 96.6706 68.75 95.9047 68.75 95.0197ZM65.625 85.2166C66.4714 85.2166 67.2038 84.8932 67.8223 84.2465C68.4408 83.5998 68.75 82.8339 68.75 81.9489V26.3979H53.125C52.2786 26.3979 51.5462 26.7213 50.9277 27.368C50.3092 28.0147 50 28.7806 50 29.6656V42.7364C50 44.098 49.7559 45.3744 49.2676 46.5658C48.7793 47.7571 48.112 48.7953 47.2656 49.6803C46.4193 50.5653 45.4264 51.2631 44.2871 51.7737C43.1478 52.2843 41.9271 52.5395 40.625 52.5395C39.3229 52.5395 38.1022 52.2843 36.9629 51.7737C35.8236 51.2631 34.8307 50.5653 33.9844 49.6803C33.138 48.7953 32.4707 47.7571 31.9824 46.5658C31.4941 45.3744 31.25 44.098 31.25 42.7364V29.6656C31.25 28.7806 30.9408 28.0147 30.3223 27.368C29.7038 26.7213 28.9714 26.3979 28.125 26.3979C27.2786 26.3979 26.5462 26.7213 25.9277 27.368C25.3092 28.0147 25 28.7806 25 29.6656V49.2718C25 50.6334 24.7559 51.9098 24.2676 53.1012C23.7793 54.2925 23.112 55.3307 22.2656 56.2157C21.4193 57.1007 20.4264 57.7985 19.2871 58.3091C18.1478 58.8197 16.9271 59.075 15.625 59.075C14.5508 59.075 13.5091 58.8877 12.5 58.5133V81.9489C12.5 82.8339 12.8092 83.5998 13.4277 84.2465C14.0462 84.8932 14.7786 85.2166 15.625 85.2166H25V62.3427C25 61.4236 25.3092 60.6578 25.9277 60.0451C26.5462 59.4324 27.2786 59.109 28.125 59.075C28.9714 59.075 29.7038 59.3813 30.3223 59.994C30.9408 60.6067 31.25 61.3896 31.25 62.3427V85.2166H50V55.8073C50 54.8882 50.3092 54.1223 50.9277 53.5096C51.5462 52.8969 52.2786 52.5736 53.125 52.5395C53.9714 52.5395 54.7038 52.8459 55.3223 53.4586C55.9408 54.0713 56.25 54.8542 56.25 55.8073V85.2166H65.625ZM87.5 68.8781V42.7364C87.5 41.3749 87.2559 40.0984 86.7676 38.9071C86.2793 37.7157 85.612 36.6775 84.7656 35.7925C83.9193 34.9075 82.9264 34.2097 81.7871 33.6992C80.6478 33.1886 79.4271 32.9333 78.125 32.9333H75V78.6812H78.125C79.4271 78.6812 80.6478 78.4259 81.7871 77.9153C82.9264 77.4048 83.9193 76.707 84.7656 75.822C85.612 74.937 86.2793 73.8988 86.7676 72.7074C87.2559 71.5161 87.5 70.2396 87.5 68.8781Z" fill="#000"/>
</g>
<defs>
<clipPath id="clip0">
<rect width="100" height="104.567" fill="white" transform="translate(0 0.256226)"/>
</clipPath>
</defs>
</svg>
